# xmcd
#
# Track frame offsets:
#  150
#  15507
#  30722
#  46102
#  58656
#  74512
#  87699
#  100799
#  115376
#  130699
#  145773
#  160170
#  173462
#  187446
#  202337
#
# Disc length: 2883 seconds
#
# Revision: 0
# Processed by: cddbd v1.5.2PL0 Copyright (c) Steve Scherf et al.
# Submitted via: Collectorz.com_Music_Collector 6.11
#
DISCID=d70b410f
DTITLE=Various Artist - Best of 30's (The Encyclopaedia Of Music) - Volume 2
DYEAR=1900
DGENRE=Nostalgia
TTITLE0=Cole Porter - You're The Top
TTITLE1=Allan Jones - The Donkey Serenade
TTITLE2=Glenn Miller - Moonlight Serenade
TTITLE3=Artie Shaw - They Say
TTITLE4=Nelson Eddy - Jeanette MacDonald - Ah! Sweet Mystery Of Life
TTITLE5=Marlene Dietrich - Falling In Love Again
TTITLE6=Fred Astaire - A Fine Romance
TTITLE7=Russ Columbo - Paradise
TTITLE8=Bing Crosby - Wrap Your Troubles In Dreams
TTITLE9=Tommy Dorsey - Marie
TTITLE10=Cab Calloway - Minnie The Moocher
TTITLE11=Fats Waller - It's A Sin To Tell A Lie
TTITLE12=Deanna Durban - Always
TTITLE13=Guy Lombardo - You're Driving Me Crazy
TTITLE14=The Ink Spots - If I Didn't Care
EXTD=
EXTT0=
EXTT1=
EXTT2=
EXTT3=
EXTT4=
EXTT5=
EXTT6=
EXTT7=
EXTT8=
EXTT9=
EXTT10=
EXTT11=
EXTT12=
EXTT13=
EXTT14=
PLAYORDER=
